<svg width="22" height="25" viewBox="0 0 22 25" fill="none" xmlns="http://www.w3.org/2000/svg">
<path d="M11 12.5C14.4719 12.5 17.2857 9.70215 17.2857 6.25C17.2857 2.79785 14.4719 0 11 0C7.52813 0 4.71429 2.79785 4.71429 6.25C4.71429 9.70215 7.52813 12.5 11 12.5ZM15.7045 14.0918L13.3571 23.4375L11.7857 16.7969L13.3571 14.0625H8.64286L10.2143 16.7969L8.64286 23.4375L6.29554 14.0918C2.7942 14.2578 0 17.1045 0 20.625V22.6562C0 23.9502 1.0558 25 2.35714 25H19.6429C20.9442 25 22 23.9502 22 22.6562V20.625C22 17.1045 19.2058 14.2578 15.7045 14.0918Z" fill="#F6F7F0"/>
</svg>
