<svg width="10" height="7" viewBox="0 0 10 7" fill="none" xmlns="http://www.w3.org/2000/svg">
<path d="M2.95291 3.44506C3.90491 3.44506 4.67543 2.67453 4.67543 1.72253C4.67543 0.770524 3.90491 0 2.95291 0C2.0009 0 1.23038 0.770524 1.23038 1.72253C1.23038 2.67453 2.0009 3.44506 2.95291 3.44506ZM4.13407 3.93721H4.00642C3.68652 4.091 3.33125 4.18328 2.95291 4.18328C2.57456 4.18328 2.22083 4.091 1.89939 3.93721H1.77174C0.793593 3.93721 0 4.7308 0 5.70895V6.15189C0 6.55945 0.330664 6.89011 0.738226 6.89011H5.16758C5.57515 6.89011 5.90581 6.55945 5.90581 6.15189V5.70895C5.90581 4.7308 5.11222 3.93721 4.13407 3.93721ZM7.38226 3.44506C8.19739 3.44506 8.85872 2.78373 8.85872 1.9686C8.85872 1.15348 8.19739 0.492151 7.38226 0.492151C6.56714 0.492151 5.90581 1.15348 5.90581 1.9686C5.90581 2.78373 6.56714 3.44506 7.38226 3.44506ZM8.12049 3.93721H8.06205C7.84827 4.01103 7.62219 4.06024 7.38226 4.06024C7.14234 4.06024 6.91626 4.01103 6.70248 3.93721H6.64404C6.33029 3.93721 6.04115 4.02795 5.78739 4.17405C6.16265 4.57854 6.39796 5.11529 6.39796 5.70895V6.29953C6.39796 6.33337 6.39027 6.36566 6.38873 6.39796H9.10479C9.51235 6.39796 9.84302 6.0673 9.84302 5.65974C9.84302 4.70773 9.07249 3.93721 8.12049 3.93721Z" fill="black" fill-opacity="0.69"/>
</svg>
